<?xml version="1.0" encoding="utf-8"?>
<svg id="logo-71" width="100%" height="100%" viewBox="0 0 39.215 48" fill="none" xmlns="http://www.w3.org/2000/svg" xmlns:bx="https://boxy-svg.com">
  <defs>
    <linearGradient id="color-0" bx:pinned="true" gradientUnits="userSpaceOnUse">
      <stop style="stop-color: rgb(33, 158, 188);"/>
    </linearGradient>
    <linearGradient id="color-1" bx:pinned="true" gradientUnits="userSpaceOnUse">
      <stop style="stop-color: rgb(251, 133, 0);"/>
    </linearGradient>
    <linearGradient id="color-2" bx:pinned="true" gradientUnits="userSpaceOnUse">
      <stop style="stop-color: rgb(255, 183, 3);"/>
    </linearGradient>
    <bx:export>
      <bx:file format="png" path="451today_logo.png" width="2000" height="2000"/>
    </bx:export>
  </defs>
  <path fill-rule="evenodd" clip-rule="evenodd" d="M 14.463 8.126 C 14.948 9.096 15.2 10.164 15.2 11.248 L 15.2 36.753 C 15.2 37.836 14.948 38.905 14.463 39.874 C 14.044 40.711 13.799 41.625 13.74 42.559 L 13.6 44.8 L 13.46 42.559 C 13.402 41.625 13.156 40.711 12.737 39.874 C 12.252 38.905 12 37.836 12 36.753 L 12 11.248 C 12 10.164 12.252 9.096 12.737 8.126 C 13.156 7.289 13.402 6.375 13.46 5.441 L 13.6 3.2 L 13.74 5.441 C 13.799 6.375 14.044 7.289 14.463 8.126 Z M 11.2 14.448 C 11.2 13.364 10.948 12.296 10.463 11.327 C 10.044 10.489 9.798 9.575 9.74 8.641 L 9.6 6.4 L 9.46 8.641 C 9.402 9.575 9.156 10.489 8.737 11.327 C 8.252 12.296 8 13.364 8 14.448 L 8 33.553 C 8 34.636 8.252 35.705 8.737 36.674 C 9.156 37.511 9.402 38.425 9.46 39.359 L 9.6 41.6 L 9.74 39.359 C 9.798 38.425 10.044 37.511 10.463 36.674 C 10.948 35.705 11.2 34.636 11.2 33.553 L 11.2 14.448 Z M 6.463 17.726 C 6.948 18.696 7.2 19.764 7.2 20.848 L 7.2 27.153 C 7.2 28.236 6.948 29.305 6.463 30.274 C 6.044 31.111 5.798 32.025 5.74 32.959 L 5.6 35.2 L 5.46 32.959 C 5.402 32.025 5.156 31.111 4.737 30.274 C 4.252 29.305 4 28.236 4 27.153 L 4 20.848 C 4 19.764 4.252 18.696 4.737 17.726 C 5.156 16.889 5.402 15.975 5.46 15.041 L 5.6 12.8 L 5.74 15.041 C 5.798 15.975 6.044 16.889 6.463 17.726 Z M 0 24.048 L 0 24 C 0.007 25.067 0.259 26.119 0.737 27.074 C 1.1560000000000001 27.911 1.4020000000000001 28.825 1.46 29.759 L 1.6 32 L 1.74 29.759 C 1.798 28.825 2.044 27.911 2.463 27.074 C 2.941 26.119 3.193 25.067 3.2 24 C 3.193 22.933 2.941 21.881 2.463 20.927 C 2.044 20.089 1.798 19.176 1.74 18.241 L 1.6 16 L 1.46 18.241 C 1.4020000000000001 19.176 1.1560000000000001 20.089 0.737 20.927 C 0.259 21.881 0.007 22.933 0 24 L 0 23.953 L 0 24.048 Z" class="ccustom" fill="#394149" style="fill: url(&quot;#color-2&quot;);"/>
  <path fill-rule="evenodd" clip-rule="evenodd" d="M 36 24 C 36 23.984 36 23.968 36 23.953 L 36 24.048 C 36 24.032 36 24.016 36 24 Z" class="ccustom" fill="#394149"/>
  <path fill-rule="evenodd" clip-rule="evenodd" d="M 36 24 C 36.007 25.067 36.259 26.119 36.737 27.074 C 37.156 27.911 37.402 28.825 37.46 29.759 L 37.6 32 L 37.74 29.759 C 37.799 28.825 38.044 27.911 38.463 27.074 C 38.941 26.119 39.193 25.067 39.2 24 C 39.193 22.933 38.941 21.881 38.463 20.927 C 38.044 20.089 37.799 19.176 37.74 18.241 L 37.6 16 L 37.46 18.241 C 37.402 19.176 37.156 20.089 36.737 20.927 C 36.259 21.881 36.007 22.933 36 24 Z" class="ccustom" fill="#394149" style="fill: url(&quot;#color-0&quot;);"/>
  <path fill-rule="evenodd" clip-rule="evenodd" d="M 39.2 24 C 39.2 24.016 39.2 24.032 39.2 24.048 L 39.2 23.953 C 39.2 23.968 39.2 23.984 39.2 24 Z" class="ccustom" fill="#394149"/>
  <path fill-rule="evenodd" clip-rule="evenodd" d="M 35.2 20.848 C 35.2 19.764 34.948 18.696 34.463 17.726 C 34.044 16.889 33.799 15.975 33.74 15.041 L 33.6 12.8 L 33.46 15.041 C 33.402 15.975 33.156 16.889 32.737 17.726 C 32.252 18.696 32 19.764 32 20.848 L 32 27.153 C 32 28.236 32.252 29.305 32.737 30.274 C 33.156 31.111 33.402 32.025 33.46 32.959 L 33.6 35.2 L 33.74 32.959 C 33.799 32.025 34.044 31.111 34.463 30.274 C 34.948 29.305 35.2 28.236 35.2 27.153 L 35.2 20.848 Z M 30.463 11.327 C 30.948 12.296 31.2 13.364 31.2 14.448 L 31.2 33.553 C 31.2 34.636 30.948 35.705 30.463 36.674 C 30.044 37.511 29.799 38.425 29.74 39.359 L 29.6 41.6 L 29.46 39.359 C 29.402 38.425 29.156 37.511 28.737 36.674 C 28.252 35.705 28 34.636 28 33.553 L 28 14.448 C 28 13.364 28.252 12.296 28.737 11.327 C 29.156 10.489 29.402 9.575 29.46 8.641 L 29.6 6.4 L 29.74 8.641 C 29.799 9.575 30.044 10.489 30.463 11.327 Z M 27.2 11.248 C 27.2 10.164 26.948 9.096 26.463 8.126 C 26.044 7.289 25.799 6.375 25.74 5.441 L 25.6 3.2 L 25.46 5.441 C 25.402 6.375 25.156 7.289 24.737 8.126 C 24.252 9.096 24 10.164 24 11.248 L 24 36.753 C 24 37.836 24.252 38.905 24.737 39.874 C 25.156 40.711 25.402 41.625 25.46 42.559 L 25.6 44.8 L 25.74 42.559 C 25.799 41.625 26.044 40.711 26.463 39.874 C 26.948 38.905 27.2 37.836 27.2 36.753 L 27.2 11.248 Z M 22.463 4.926 C 22.948 5.896 23.2 6.964 23.2 8.047 L 23.2 39.953 C 23.2 41.036 22.948 42.105 22.463 43.074 C 22.044 43.911 21.799 44.825 21.74 45.759 L 21.6 48 L 21.46 45.759 C 21.402 44.825 21.156 43.911 20.737 43.074 C 20.252 42.105 20 41.036 20 39.953 L 20 8.047 C 20 6.964 20.252 5.896 20.737 4.926 C 21.156 4.089 21.402 3.175 21.46 2.241 L 21.6 0 L 21.74 2.241 C 21.799 3.175 22.044 4.089 22.463 4.926 Z M 18.463 4.926 C 18.948 5.896 19.2 6.964 19.2 8.047 L 19.2 39.953 C 19.2 41.036 18.948 42.105 18.463 43.074 C 18.044 43.911 17.799 44.825 17.74 45.759 L 17.6 48 L 17.46 45.759 C 17.402 44.825 17.156 43.911 16.737 43.074 C 16.252 42.105 16 41.036 16 39.953 L 16 8.047 C 16 6.964 16.252 5.896 16.737 4.926 C 17.156 4.089 17.402 3.175 17.46 2.241 L 17.6 0 L 17.74 2.241 C 17.799 3.175 18.044 4.089 18.463 4.926 Z" class="ccustom" fill="#394149" style="fill: url(&quot;#color-1&quot;);"/>
  <path fill-rule="evenodd" clip-rule="evenodd" d="M 3.2 24 L 3.2 24.048 L 3.2 23.953 L 3.2 24 Z" class="ccustom" fill="#394149"/>
</svg>